<svg width="30" height="31" viewBox="0 0 30 31" fill="none" xmlns="http://www.w3.org/2000/svg">
<path d="M15 28.4312C22.2487 28.4312 28.125 22.5549 28.125 15.3062C28.125 8.05742 22.2487 2.18115 15 2.18115C7.75126 2.18115 1.875 8.05742 1.875 15.3062C1.875 22.5549 7.75126 28.4312 15 28.4312Z" fill="url(#paint0_linear_2237_14251)"/>
<path d="M17.2939 8.41931C17.5776 7.92415 17.408 7.29171 16.9151 7.00672C16.4223 6.72173 15.7927 6.89211 15.5091 7.38726L15.0143 8.25092L14.5195 7.38726C14.2358 6.89211 13.6063 6.72173 13.1135 7.00672C12.6206 7.29171 12.451 7.92415 12.7347 8.41931L13.8263 10.3247L10.3736 16.3514H7.59217C7.0235 16.3514 6.5625 16.8145 6.5625 17.3858C6.5625 17.9571 7.0235 18.4202 7.59217 18.4202H17.2804C17.3653 18.196 17.4547 17.8112 17.3596 17.4576C17.2166 16.9261 16.6875 16.3514 15.8008 16.3514H12.7497L17.2939 8.41931Z" fill="white"/>
<path d="M10.9092 19.5641C10.7335 19.3681 10.3399 19.0548 9.99475 18.9518C9.46853 18.7946 9.06955 18.8932 8.86826 18.9791L8.1013 20.3179C7.81763 20.813 7.98721 21.4455 8.48007 21.7305C8.97294 22.0155 9.6024 21.8451 9.88609 21.3499L10.9092 19.5641Z" fill="white"/>
<path d="M20.8404 18.42H22.4081C22.9768 18.42 23.4378 17.9569 23.4378 17.3856C23.4378 16.8143 22.9768 16.3512 22.4081 16.3512H19.6553L16.5542 10.9382C16.3239 11.1582 15.8822 11.72 15.8154 12.357C15.7297 13.176 15.8583 13.8656 16.2444 14.5409C17.5426 16.8112 18.8428 19.0805 20.1428 21.3498C20.4265 21.845 21.056 22.0154 21.5489 21.7304C22.0418 21.4454 22.2114 20.8129 21.9277 20.3178L20.8404 18.42Z" fill="white"/>
<defs>
<linearGradient id="paint0_linear_2237_14251" x1="15" y1="2.18115" x2="15" y2="28.4312" gradientUnits="userSpaceOnUse">
<stop stop-color="#2AC9FA"/>
<stop offset="1" stop-color="#1F65EB"/>
</linearGradient>
</defs>
</svg>
