<svg width="31" height="31" viewBox="0 0 31 31" fill="none" xmlns="http://www.w3.org/2000/svg">
<path d="M14.4639 0.75H14.2048L14.214 1.00892L14.7316 15.5L14.214 29.9911L14.2048 30.25H14.4639H16.5353H16.7944L16.7851 29.9911L16.2676 15.5L16.7851 1.00892L16.7944 0.75H16.5353H14.4639Z" fill="black" stroke="black" stroke-width="0.5"/>
<path d="M4.3369 5.80272L4.15369 5.98592L4.34332 6.16247L14.956 16.0432L24.8368 26.6559L25.0133 26.8456L25.1965 26.6624L26.6613 25.1976L26.8445 25.0144L26.6548 24.8379L16.0422 14.9571L6.16137 4.34442L5.98482 4.15479L5.80162 4.33799L4.3369 5.80272Z" fill="black" stroke="black" stroke-width="0.5"/>
<path d="M25.1973 4.33787L25.0141 4.15467L24.8375 4.34429L14.9568 14.957L4.34406 24.8378L4.15443 25.0143L4.33763 25.1975L5.80236 26.6622L5.98556 26.8454L6.16211 26.6558L16.0429 16.0431L26.6556 6.16234L26.8452 5.9858L26.662 5.80259L25.1973 4.33787Z" fill="black" stroke="black" stroke-width="0.5"/>
<path d="M30.25 14.4648L30.25 14.2058L29.9911 14.215L15.5 14.7325L1.00892 14.215L0.75 14.2058L0.75 14.4648L0.75 16.5363L0.75 16.7954L1.00892 16.7861L15.5 16.2686L29.9911 16.7861L30.25 16.7954L30.25 16.5363L30.25 14.4648Z" fill="black" stroke="black" stroke-width="0.5"/>
</svg>
